<?xml version="1.0" encoding="iso-8859-1"?>

<svg version="1.1" id="Capa_1" xmlns="http://www.w3.org/2000/svg" xmlns:xlink="http://www.w3.org/1999/xlink" x="0px" y="0px"
	 viewBox="0 0 31.135 31.135" style="enable-background:new 0 0 31.135 31.135;" xml:space="preserve">
<g>
	<path d="M25.377,0c2.324,0,4.207,2.018,4.207,4.501v22.135c0,2.487-1.883,4.499-4.207,4.499H5.755
		c-2.323,0-4.204-2.012-4.204-4.499V4.501C1.551,2.018,3.432,0,5.755,0H25.377 M25.377,2.25H5.755c-1.159,0-2.101,1.008-2.101,2.251
		v22.135c0,1.243,0.941,2.25,2.101,2.25h19.622c1.158,0,2.102-1.007,2.102-2.25V4.501C27.479,3.258,26.535,2.25,25.377,2.25
		L25.377,2.25z M6.846,3.869c-1.007,0-1.565,0.554-1.565,1.37v5.386c0,0.523,0.24,1.127,1.244,1.127h18.224
		c1.001,0,1.102-0.62,1.102-0.987V5.371c0-0.785-0.293-1.502-1.297-1.502H6.846z M6.846,12.748c-0.594,0-1.265-0.027-1.265,1.181
		v4.175c0,0.954,0.257,1.416,1.126,1.416h6.589c1.233,0,1.122-0.791,1.122-1.274v-4.209c0-1.01-0.338-1.289-1.066-1.289
		C13.352,12.748,6.846,12.748,6.846,12.748z M18.618,12.879c-0.596,0-1.265,0.128-1.265,1.085v11.558
		c0,1.321,0.253,1.428,1.121,1.428h6.938c0.654,0,0.778,0.06,0.778-0.942V14.424c0-1.276-0.335-1.545-1.064-1.545H18.618z
		 M6.779,20.484c-0.593,0-1.263-0.027-1.263,1.18v4.179c0,0.953,0.256,1.416,1.123,1.416h6.594c1.232,0,1.119-0.793,1.119-1.275
		v-4.207c0-1.012-0.335-1.293-1.064-1.293C13.288,20.484,6.779,20.484,6.779,20.484z M19.24,6.407v1.958
		c0,0.444-0.023,0.767-0.071,0.973c-0.048,0.202-0.147,0.393-0.3,0.567c-0.154,0.18-0.337,0.307-0.554,0.384
		c-0.217,0.075-0.453,0.113-0.721,0.113c-0.349,0-0.642-0.039-0.873-0.121c-0.233-0.082-0.419-0.207-0.558-0.379
		c-0.135-0.172-0.236-0.353-0.291-0.542c-0.057-0.19-0.086-0.492-0.086-0.904V6.407c0-0.539,0.045-0.945,0.137-1.211
		c0.092-0.271,0.279-0.484,0.556-0.646c0.274-0.162,0.612-0.242,1.007-0.242c0.319,0,0.611,0.054,0.863,0.166
		c0.253,0.113,0.441,0.252,0.57,0.414c0.125,0.161,0.209,0.345,0.254,0.547C19.22,5.637,19.24,5.962,19.24,6.407z M18.444,5.834
		c0-0.34-0.053-0.554-0.166-0.637c-0.114-0.085-0.373-0.127-0.787-0.127c-0.405,0-0.677,0.043-0.805,0.133
		c-0.13,0.091-0.196,0.301-0.196,0.631v3.118c0,0.372,0.064,0.594,0.182,0.67c0.123,0.08,0.385,0.118,0.789,0.118
		s0.67-0.047,0.799-0.135c0.125-0.091,0.184-0.293,0.184-0.607V5.834z M24.321,6.407v1.958c0,0.444-0.024,0.767-0.076,0.973
		c-0.047,0.202-0.143,0.393-0.297,0.567c-0.154,0.18-0.338,0.307-0.555,0.384c-0.213,0.075-0.453,0.113-0.721,0.113
		c-0.35,0-0.644-0.039-0.871-0.121c-0.234-0.082-0.416-0.207-0.558-0.379c-0.136-0.172-0.235-0.353-0.292-0.542
		c-0.061-0.19-0.088-0.492-0.088-0.904V6.407c0-0.539,0.045-0.945,0.141-1.211c0.094-0.271,0.277-0.484,0.553-0.646
		c0.277-0.162,0.613-0.242,1.008-0.242c0.322,0,0.611,0.054,0.859,0.166c0.256,0.113,0.445,0.252,0.571,0.414
		c0.126,0.161,0.212,0.345,0.259,0.547C24.298,5.637,24.321,5.962,24.321,6.407z M23.522,5.834c0-0.34-0.057-0.554-0.168-0.637
		c-0.111-0.085-0.375-0.127-0.787-0.127c-0.403,0-0.673,0.043-0.803,0.133c-0.127,0.091-0.195,0.301-0.195,0.631v3.118
		c0,0.372,0.062,0.594,0.183,0.67c0.123,0.08,0.384,0.118,0.788,0.118c0.402,0,0.67-0.047,0.797-0.135
		c0.125-0.091,0.186-0.293,0.186-0.607V5.834H23.522z M12.662,16.81h-1.79v1.833H9.314V16.81H7.497v-1.558h1.816v-1.778h1.559v1.778
		h1.79V16.81z M12.271,25.387H7.01v-1.996h5.261V25.387z M24.621,18.99h-5.258v-1.996h5.258V18.99z M24.666,22.324h-5.258V20.33
		h5.258V22.324z"/>
	<g>
	</g>
	<g>
	</g>
	<g>
	</g>
	<g>
	</g>
	<g>
	</g>
	<g>
	</g>
	<g>
	</g>
	<g>
	</g>
	<g>
	</g>
	<g>
	</g>
	<g>
	</g>
	<g>
	</g>
	<g>
	</g>
	<g>
	</g>
	<g>
	</g>
</g>
<g>
</g>
<g>
</g>
<g>
</g>
<g>
</g>
<g>
</g>
<g>
</g>
<g>
</g>
<g>
</g>
<g>
</g>
<g>
</g>
<g>
</g>
<g>
</g>
<g>
</g>
<g>
</g>
<g>
</g>
</svg>
